#!OML:ASF H:\Punching\Project 1\Capture day 1\Session 1\female.ASF
:FULLY-SPECIFIED
:DEGREES
1476
root 0.786006 15.0791 1.09214 15.7601 -25.4996 -4.26751
lowerback -1.08642 4.6034 2.53549
upperback -5.30793 6.19058 0.0105413
thorax -4.61227 2.97512 -1.56572
lowerneck 5.50995 16.7984 28.2723
upperneck 15.1082 27.8846 -24.4089
head 11.8198 14.0261 -9.39546
rclavicle -9.36318e-014 -5.15598e-016
rhumerus 3.24568 27.1856 -73.2723
rradius 127.374
rwrist -5.15796
rhand -36.655 13.7184
rfingers 7.12502
rthumb -9.74177 -16.0363
lclavicle -9.36318e-014 -5.15598e-016
lhumerus -0.205179 -11.0314 56.4806
lradius 139.966
lwrist 1.8256
lhand -31.1156 2.7761
lfingers 7.12502
lthumb -4.3948 32.7105
rfemur -24.1806 3.55068 10.2781
rtibia 78.0413
rfoot -4.73557 -10.4141
rtoes -6.76675
lfemur -44.6845 0.214225 -17.1433
ltibia 47.471
lfoot -15.2963 17.4517
ltoes 10.0514
1477
root 0.759495 15.0515 1.04715 15.8848 -25.9588 -4.18593
lowerback -1.26724 4.68451 2.44496
upperback -5.40938 6.28826 -0.105579
thorax -4.60889 3.0243 -1.62596
lowerneck 5.65367 16.8424 28.3533
upperneck 14.9554 27.9696 -24.4681
head 11.7873 14.0787 -9.41181
rclavicle -4.69411e-014 2.06239e-015
rhumerus 3.64951 27.2828 -73.0641
rradius 127.36
rwrist -5.23385
rhand -36.6278 13.6923
rfingers 7.12502
rthumb -9.71556 -16.0636
lclavicle -4.69411e-014 2.06239e-015
lhumerus -0.100712 -10.6957 56.2365
lradius 139.956
lwrist 1.86446
lhand -31.1339 2.7393
lfingers 7.12502
lthumb -4.41248 32.6733
rfemur -21.8222 3.97817 9.73107
rtibia 74.2243
rfoot -5.55161 -11.373
rtoes -6.55607
lfemur -45.1866 0.605191 -17.0947
ltibia 47.9988
lfoot -15.3826 17.4326
ltoes 9.69412
1478
root 0.732462 15.0245 1.00062 15.9714 -26.4554 -4.09923
lowerback -1.40526 4.77161 2.35822
upperback -5.50672 6.39554 -0.222587
thorax -4.62453 3.07772 -1.69277
lowerneck 5.79438 16.8898 28.4229
upperneck 14.8156 28.0602 -24.5204
head 11.7588 14.133 -9.42261
rclavicle 7.53239e-014 1.35174e-014
rhumerus 4.06525 27.3801 -72.8352
rradius 127.347
rwrist -5.30316
rhand -36.586 13.6528
rfingers 7.12502
rthumb -9.67522 -16.105
lclavicle 7.53239e-014 1.35174e-014
lhumerus -0.0148649 -10.3391 55.9983
lradius 139.949
lwrist 1.89305
lhand -31.1381 2.71245
lfingers 7.12502
lthumb -4.41649 32.6464
rfemur -19.5143 4.45195 9.21177
rtibia 70.3321
rfoot -6.34836 -12.2832
rtoes -6.50636
lfemur -45.6448 1.01031 -17.0501
ltibia 48.5358
lfoot -15.4883 17.4439
ltoes 9.37527
1479
root 0.704724 14.9977 0.952032 16.0342 -26.9812 -4.01914
lowerback -1.51059 4.86346 2.28193
upperback -5.60235 6.51053 -0.336225
thorax -4.65578 3.13429 -1.76474
lowerneck 5.94192 16.9366 28.4849
upperneck 14.6814 28.1529 -24.5733
head 11.7309 14.1885 -9.43315
rclavicle 2.50779e-014 2.71838e-014
rhumerus 4.47979 27.4767 -72.5909
rradius 127.337
rwrist -5.35559
rhand -36.5288 13.604
rfingers 7.12502
rthumb -9.62005 -16.1563
lclavicle 2.50779e-014 2.71838e-014
lhumerus 0.0356237 -9.96031 55.7723
lradius 139.956
lwrist 1.93565
lhand -31.1089 2.68937
lfingers 7.12502
lthumb -4.38829 32.6239
rfemur -17.2695 4.96735 8.73478
rtibia 66.3719
rfoot -7.12864 -13.1416
rtoes -6.67966
lfemur -46.0628 1.42536 -16.9919
ltibia 49.0579
lfoot -15.5958 17.483
ltoes 9.10436
1480
root 0.675514 14.9631 0.89941 16.0912 -27.5315 -3.9695
lowerback -1.59485 4.96319 2.2371
upperback -5.69659 6.63738 -0.441618
thorax -4.69446 3.19542 -1.84736
lowerneck 6.09252 16.983 28.5341
upperneck 14.56 28.2466 -24.6197
head 11.7043 14.2442 -9.44013
rclavicle 1.02669e-013 1.17283e-014
rhumerus 4.89579 27.567 -72.3265
rradius 127.325
rwrist -5.36397
rhand -36.4757 13.519
rfingers 7.12502
rthumb -9.56876 -16.2437
lclavicle 1.02669e-013 1.17283e-014
lhumerus 0.0614374 -9.56143 55.5578
lradius 139.976
lwrist 1.99148
lhand -31.0583 2.66808
lfingers 7.12502
lthumb -4.33943 32.6036
rfemur -15.1161 5.5328 8.31787
rtibia 62.4089
rfoot -7.94952 -13.9471
rtoes -7.011
lfemur -46.4946 1.85886 -16.89
ltibia 49.6039
lfoot -15.7004 17.5427
ltoes 8.89771
1481
root 0.645463 14.9377 0.845946 16.1684 -28.0989 -3.9689
lowerback -1.67057 5.06854 2.22889
upperback -5.79012 6.77288 -0.53461
thorax -4.73408 3.25947 -1.93797
lowerneck 6.24861 17.0281 28.5865
upperneck 14.431 28.3419 -24.6812
head 11.6783 14.301 -9.45337
rclavicle 1.64619e-014 -4.27387e-015
rhumerus 5.30744 27.666 -72.045
rradius 127.218
rwrist -5.1599
rhand -36.6573 13.7932
rfingers 7.12502
rthumb -9.74402 -15.9614
lclavicle 1.64619e-014 -4.27387e-015
lhumerus 0.0637018 -9.14398 55.3483
lradius 140.007
lwrist 2.05542
lhand -31.0011 2.65292
lfingers 7.12502
lthumb -4.28423 32.5896
rfemur -13.0506 6.13842 7.99286
rtibia 58.4199
rfoot -8.79755 -14.7112
rtoes -7.5385
lfemur -46.8816 2.30758 -16.7315
ltibia 50.1226
lfoot -15.823 17.6188
ltoes 8.73781
1482
root 0.613875 14.9111 0.788761 16.2888 -28.6645 -4.02937
lowerback -1.75514 5.17551 2.26636
upperback -5.88624 6.91129 -0.61406
thorax -4.76747 3.32329 -2.03864
lowerneck 6.41441 17.0698 28.6478
upperneck 14.2866 28.4361 -24.761
head 11.65 14.3583 -9.47576
rclavicle -2.97618e-014 -2.48481e-015
rhumerus 5.70929 27.7694 -71.7546
rradius 127.039
rwrist -4.78962
rhand -37.0386 14.3453
rfingers 7.12502
rthumb -10.1119 -15.3918
lclavicle -2.97618e-014 -2.48481e-015
lhumerus 0.0530089 -8.71329 55.1363
lradius 140.039
lwrist 2.11611
lhand -30.9624 2.62987
lfingers 7.12502
lthumb -4.24683 32.5673
rfemur -11.1348 6.75046 7.76771
rtibia 54.5094
rfoot -9.69806 -15.4256
rtoes -8.2746
lfemur -47.2982 2.7749 -16.4995
ltibia 50.6539
lfoot -15.9349 17.6999
ltoes 8.5794
1483
root 0.580548 14.8833 0.727474 16.4654 -29.2204 -4.15305
lowerback -1.8653 5.28129 2.34716
upperback -5.97958 7.04813 -0.680827
thorax -4.77969 3.38508 -2.14667
lowerneck 6.57666 17.1125 28.7177
upperneck 14.1203 28.5316 -24.8624
head 11.6209 14.4159 -9.50604
rclavicle -6.48721e-014 -9.14409e-015
rhumerus 6.11576 27.8736 -71.4534
rradius 126.796
rwrist -4.27412
rhand -37.6091 15.144
rfingers 7.12502
rthumb -10.6623 -14.5655
lclavicle -6.48721e-014 -9.14409e-015
lhumerus 0.0466931 -8.26496 54.9165
lradius 140.067
lwrist 2.17046
lhand -30.9505 2.60862
lfingers 7.12502
lthumb -4.2353 32.5463
rfemur -9.39271 7.34435 7.64038
rtibia 50.7227
rfoot -10.6498 -16.0777
rtoes -9.15602
lfemur -47.7497 3.2601 -16.1905
ltibia 51.171
lfoot -16.0135 17.7779
ltoes 8.42768
1484
root 0.545546 14.8545 0.662864 16.6945 -29.7609 -4.32971
lowerback -2.00086 5.3808 2.46886
upperback -6.07077 7.17634 -0.737411
thorax -4.77164 3.44133 -2.26306
lowerneck 6.72852 17.162 28.7833
upperneck 13.9381 28.6327 -24.9737
head 11.5912 14.4748 -9.53608
rclavicle -4.17199e-014 -9.93923e-016
rhumerus 6.53731 27.9854 -71.143
rradius 126.532
rwrist -3.72593
rhand -38.2576 16.0332
rfingers 7.12502
rthumb -11.2877 -13.6431
lclavicle -4.17199e-014 -9.93923e-016
lhumerus 0.051593 -7.79243 54.6876
lradius 140.086
lwrist 2.21378
lhand -30.9784 2.59381
lfingers 7.12502
lthumb -4.26225 32.5309
rfemur -7.8437 7.89006 7.59274
rtibia 47.1473
rfoot -11.6821 -16.6494
rtoes -10.1638
lfemur -48.2401 3.75818 -15.818
ltibia 51.6963
lfoot -16.0748 17.8476
ltoes 8.26228
1485
root 0.508896 14.8257 0.594517 16.9749 -30.2708 -4.5439
lowerback -2.16585 5.47011 2.61776
upperback -6.16345 7.29011 -0.786081
thorax -4.74653 3.48961 -2.38235
lowerneck 6.88048 17.2141 28.8418
upperneck 13.7382 28.7346 -25.0915
head 11.5556 14.5337 -9.56679
rclavicle -4.12665e-014 1.98785e-016
rhumerus 6.95895 28.0947 -70.8288
rradius 126.309
rwrist -3.26739
rhand -38.8459 16.8028
rfingers 7.12502
rthumb -11.855 -12.8416
lclavicle -4.12665e-014 1.98785e-016
lhumerus 0.0637134 -7.30718 54.454
lradius 140.101
lwrist 2.25828
lhand -31.034 2.5895
lfingers 7.12502
lthumb -4.31597 32.5255
rfemur -6.50483 8.35542 7.61037
rtibia 43.8419
rfoot -12.7762 -17.1248
rtoes -11.1663
lfemur -48.7723 4.25351 -15.3932
ltibia 52.2151
lfoot -16.11 17.9037
ltoes 8.09872
1486
root 0.470603 14.7979 0.523129 17.2942 -30.7531 -4.79696
lowerback -2.34857 5.55055 2.80157
upperback -6.25244 7.39136 -0.826518
thorax -4.70455 3.53062 -2.50925
lowerneck 7.02173 17.2731 28.8809
upperneck 13.5327 28.8402 -25.2057
head 11.5171 14.5926 -9.59107
rclavicle -3.68249e-014 -9.54166e-015
rhumerus 7.39448 28.1997 -70.5095
rradius 126.159
rwrist -2.9962
rhand -39.2683 17.3307
rfingers 7.12502
rthumb -12.2624 -12.2898
lclavicle -3.68249e-014 -9.54166e-015
lhumerus 0.0831766 -6.80521 54.2198
lradius 140.118
lwrist 2.30841
lhand -31.1133 2.60565
lfingers 7.12502
lthumb -4.39256 32.5401
rfemur -5.36662 8.736 7.69089
rtibia 40.8448
rfoot -13.8866 -17.4895
rtoes -12.1273
lfemur -49.319 4.74419 -14.9158
ltibia 52.7135
lfoot -16.1162 17.9501
ltoes 7.92995
1487
root 0.431052 14.7708 0.447711 17.6475 -31.2007 -5.08266
lowerback -2.53655 5.62022 3.01367
upperback -6.34162 7.47778 -0.858696
thorax -4.65789 3.56315 -2.64183
lowerneck 7.16653 17.3329 28.9056
upperneck 13.3175 28.9442 -25.3209
head 11.472 14.6505 -9.61441
rclavicle -1.0566e-013 -2.04748e-014
rhumerus 7.82387 28.301 -70.1947
rradius 126.087
rwrist -2.92541
rhand -39.4945 17.5904
rfingers 7.12502
rthumb -12.4804 -12.017
lclavicle -1.0566e-013 -2.04748e-014
lhumerus 0.0966637 -6.30164 53.9901
lradius 140.141
lwrist 2.37124
lhand -31.1971 2.63174
lfingers 7.12502
lthumb -4.4735 32.5645
rfemur -4.43276 9.02433 7.83105
rtibia 38.1847
rfoot -14.93 -17.75
rtoes -12.9922
lfemur -49.8775 5.22405 -14.3895
ltibia 53.1778
lfoot -16.0826 17.985
ltoes 7.7632
1488
root 0.390268 14.745 0.36837 18.0223 -31.6099 -5.39248
lowerback -2.72837 5.68202 3.25489
upperback -6.42732 7.55297 -0.885517
thorax -4.60286 3.58906 -2.78347
lowerneck 7.31463 17.3907 28.9087
upperneck 13.1039 29.0425 -25.4281
head 11.4199 14.7054 -9.63427
rclavicle 5.85359e-014 1.07344e-014
rhumerus 8.2423 28.3851 -69.8812
rradius 126.104
rwrist -3.06487
rhand -39.4932 17.5135
rfingers 7.12502
rthumb -12.4792 -12.094
lclavicle 5.85359e-014 1.07344e-014
lhumerus 0.114409 -5.80527 53.7739
lradius 140.164
lwrist 2.44408
lhand -31.269 2.66698
lfingers 7.12502
lthumb -4.54284 32.5983
rfemur -3.68731 9.23018 8.02888
rtibia 35.8727
rfoot -15.8262 -17.9353
rtoes -13.7627
lfemur -50.4318 5.68052 -13.8196
ltibia 53.5959
lfoot -16.0044 18.0165
ltoes 7.59425
1489
root 0.348701 14.7208 0.284915 18.4023 -31.999 -5.71454
lowerback -2.89912 5.73523 3.50476
upperback -6.50821 7.61682 -0.907502
thorax -4.55465 3.60885 -2.92651
lowerneck 7.45767 17.4506 28.8978
upperneck 12.895 29.142 -25.5355
head 11.3689 14.76 -9.65182
rclavicle 7.29478e-014 1.41137e-014
rhumerus 8.64928 28.4781 -69.5719
rradius 126.116
rwrist -3.21173
rhand -39.4882 17.4496
rfingers 7.12502
rthumb -12.4743 -12.1581
lclavicle 7.29478e-014 1.41137e-014
lhumerus 0.119755 -5.31109 53.57
lradius 140.196
lwrist 2.53749
lhand -31.3256 2.69402
lfingers 7.12502
lthumb -4.59759 32.6241
rfemur -3.12214 9.39437 8.27518
rtibia 33.9123
rfoot -16.4766 -18.088
rtoes -14.4235
lfemur -50.96 6.11369 -13.2146
ltibia 53.9541
lfoot -15.8865 18.0533
ltoes 7.46583
1490
root 0.306561 14.6981 0.196483 18.7852 -32.3692 -6.02879
lowerback -3.05537 5.7787 3.74769
upperback -6.5876 7.66738 -0.93249
thorax -4.51414 3.62198 -3.07022
lowerneck 7.61064 17.5079 28.8818
upperneck 12.6824 29.2396 -25.6496
head 11.3152 14.8145 -9.67302
rclavicle 2.09221e-014 1.27222e-014
rhumerus 9.03312 28.5766 -69.2765
rradius 126.12
rwrist -3.34056
rhand -39.4802 17.3955
rfingers 7.12502
rthumb -12.4667 -12.2127
lclavicle 2.09221e-014 1.27222e-014
lhumerus 0.110153 -4.82926 53.3698
lradius 140.231
lwrist 2.62565
lhand -31.3775 2.73678
lfingers 7.12502
lthumb -4.64763 32.6658
rfemur -2.74169 9.53566 8.56214
rtibia 32.2894
rfoot -16.8299 -18.3793
rtoes -15.1344
lfemur -51.4667 6.51669 -12.5918
ltibia 54.2393
lfoot -15.7157 18.1061
ltoes 7.35307
